<?xml version="1.0" encoding="utf-8"?><svg xmlns="http://www.w3.org/2000/svg" xmlns:xlink="http://www.w3.org/1999/xlink"><symbol viewBox="0 0 53 48" id="adv" xmlns="http://www.w3.org/2000/svg"><path d="M52.999 46.666c0 .737-.592 1.334-1.325 1.334-1.807 0-2.76-.958-3.454-1.658-.604-.608-.898-.876-1.58-.876s-.976.268-1.581.876c-.695.7-1.646 1.658-3.454 1.658-1.807 0-2.76-.958-3.455-1.658-.604-.608-.898-.876-1.58-.876s-.976.268-1.581.876c-.694.7-1.647 1.658-3.455 1.658s-2.76-.958-3.454-1.658c-.604-.608-.898-.876-1.579-.876-.68 0-.977.268-1.581.876-.695.7-1.647 1.658-3.453 1.658-1.809 0-2.759-.958-3.457-1.658-.603-.608-.9-.876-1.58-.876-.682 0-.977.268-1.582.876-.693.7-1.647 1.658-3.455 1.658-1.806 0-2.758-.958-3.453-1.658-.603-.608-.898-.876-1.58-.876-.681 0-.976.268-1.581.876-.694.7-1.647 1.658-3.455 1.658A1.329 1.329 0 010 46.666c0-.737.593-1.333 1.325-1.333.682 0 .978-.268 1.581-.877.695-.699 1.646-1.657 3.454-1.657 1.807 0 2.76.958 3.455 1.657.604.609.898.877 1.58.877.681 0 .976-.268 1.582-.877.694-.699 1.647-1.657 3.454-1.657 1.807 0 2.76.958 3.455 1.657.604.609.901.877 1.58.877.681 0 .976-.268 1.58-.877.695-.699 1.647-1.657 3.455-1.657 1.809 0 2.759.958 3.454 1.657.603.609.898.877 1.58.877s.977-.268 1.582-.877c.695-.699 1.646-1.657 3.454-1.657 1.806 0 2.759.958 3.454 1.657.604.609.899.877 1.581.877.68 0 .975-.268 1.58-.877.694-.699 1.646-1.657 3.455-1.657 1.808 0 2.758.958 3.453 1.657.604.609.9.877 1.581.877.733 0 1.325.596 1.325 1.333zm0-5.465c0 .736-.592 1.333-1.324 1.333-1.808 0-2.76-.958-3.456-1.658-.604-.608-.898-.876-1.58-.876-.681 0-.976.268-1.581.876-.694.7-1.646 1.658-3.453 1.658s-2.76-.958-3.455-1.658c-.604-.608-.9-.876-1.581-.876-.68 0-.975.268-1.58.876-.694.7-1.647 1.658-3.455 1.658s-2.76-.958-3.454-1.658c-.604-.608-.898-.876-1.579-.876-.68 0-.977.268-1.58.876-.696.7-1.648 1.658-3.454 1.658-1.808 0-2.759-.958-3.455-1.658-.605-.608-.9-.876-1.582-.876-.681 0-.976.268-1.581.876-.694.7-1.646 1.658-3.455 1.658-1.807 0-2.758-.958-3.454-1.658-.603-.608-.898-.876-1.58-.876-.681 0-.976.268-1.58.876-.695.7-1.648 1.658-3.456 1.658A1.329 1.329 0 010 41.201c0-.737.593-1.333 1.325-1.333.682 0 .978-.27 1.582-.877.695-.7 1.646-1.658 3.454-1.658 1.807 0 2.76.958 3.454 1.658.604.608.898.877 1.58.877.681 0 .976-.27 1.581-.877.618-.622 1.477-1.412 2.925-1.587V8c0-4.412 3.566-8 7.95-8 4.383 0 7.95 3.588 7.95 8 0 .737-.593 1.333-1.326 1.333A1.329 1.329 0 0129.15 8c0-2.941-2.377-5.333-5.3-5.333-2.922 0-5.3 2.392-5.3 5.333v8H37.1V8c0-4.412 3.567-8 7.95-8C49.434 0 53 3.588 53 8a1.33 1.33 0 01-1.326 1.333A1.329 1.329 0 0150.348 8c0-2.941-2.377-5.333-5.3-5.333-2.922 0-5.3 2.392-5.3 5.333v30.728c.092.089.193.18.275.263.604.608.9.877 1.581.877.681 0 .976-.27 1.58-.877.695-.7 1.647-1.658 3.456-1.658 1.808 0 2.758.958 3.453 1.658.604.608.9.877 1.581.877A1.33 1.33 0 0153 41.2zm-15.9-3.797v-2.738h-18.55v3.223c.561.33.983.748 1.335 1.102.604.608.9.877 1.582.877.68 0 .976-.27 1.58-.877.694-.7 1.646-1.658 3.454-1.658 1.809 0 2.76.958 3.454 1.658.603.608.898.877 1.58.877s.977-.27 1.582-.877c.694-.7 1.645-1.658 3.453-1.658.2 0 .351.049.53.071zm0-10.738H18.55V32H37.1zm0-8H18.55V24H37.1z"/></symbol><symbol viewBox="0 0 45 48" id="adv2" xmlns="http://www.w3.org/2000/svg"><path d="M45 36.917V48H34.453v-7.28L11.65 34.322a5.084 5.084 0 01-1.104-.457V48H7.909v-5.637H2.636V48H0V5.273A5.28 5.28 0 015.273 0a5.28 5.28 0 015.274 5.273V8.23l30.711 8.618-.006.023c.61.172 1.193.457 1.718.855A5.088 5.088 0 0145 21.811a5.144 5.144 0 01-3.742 4.935l-9.328 2.618 9.328 2.617A5.144 5.144 0 0145 36.917zm-37.09.173H2.635v2.637H7.91zm0-5.274H2.635v2.637H7.91zm0-5.273H2.635v2.637H7.91zm0-5.274H2.635v2.637H7.91zm0-5.273H2.635v2.637H7.91zm0-5.273H2.635v2.636H7.91zm0-5.45a2.64 2.64 0 00-2.637-2.636 2.64 2.64 0 00-2.637 2.636v2.813H7.91zm31.29 14.14L17.837 25.41l9.215 2.586 13.495-3.788a2.498 2.498 0 001.817-2.396c0-.787-.36-1.51-.986-1.985a2.47 2.47 0 00-2.176-.412zM10.548 16.14l15.281 4.288 9.215-2.585-24.496-6.875zm0 8.767c.182-.102.369-.192.56-.27.144-.09.324-.168.544-.23l9.298-2.61-10.402-2.918zm31.816 12.011a2.498 2.498 0 00-1.817-2.397l-26.837-7.53a2.472 2.472 0 00-2.177.412 2.47 2.47 0 00-.985 1.984c0 1.112.746 2.097 1.816 2.397l24.726 6.939v6.641h5.274z"/></symbol><symbol viewBox="0 0 61 48" id="adv3" xmlns="http://www.w3.org/2000/svg"><path d="M34.198 14.233l-.528-3.076a2.004 2.004 0 01.576-1.776l2.235-2.18-3.09-.447a2.007 2.007 0 01-1.51-1.098l-1.383-2.799L29 6h-.043a4.064 4.064 0 012.734 3.835v3.081zM28.699 1.12A1.993 1.993 0 0130.497 0h.001c.77 0 1.458.428 1.799 1.117l1.633 3.307 3.649.53c.76.11 1.381.632 1.62 1.364a1.994 1.994 0 01-.508 2.056l-2.64 2.574.625 3.635a1.99 1.99 0 01-.512 1.71c.369.353.671.775.887 1.244a4.033 4.033 0 012.043-.554 4.063 4.063 0 013.788 2.607 4.026 4.026 0 011.942-.496 4.06 4.06 0 014.056 4.056v10.053c0 2.92-.444 5.815-1.318 8.602l-1.68 5.359a1.193 1.193 0 01-2.274-.713l1.68-5.36a26.336 26.336 0 001.209-7.888V23.15c0-.923-.751-1.673-1.673-1.673-.923 0-1.674.75-1.674 1.673v3.497a1.191 1.191 0 01-2.383 0v-5.608a1.674 1.674 0 00-3.347 0v5.608a1.191 1.191 0 01-2.382 0v-7.423a1.674 1.674 0 00-3.347 0v7.423a1.191 1.191 0 01-2.383 0V9.835c0-.923-.751-1.674-1.673-1.674-.923 0-1.674.751-1.674 1.674V11.9a1.191 1.191 0 11-2.382 0V9.835a4.062 4.062 0 013.484-4.016zm31.693 7.255l-2.64 2.574.625 3.635c.13.758-.175 1.51-.797 1.962a1.993 1.993 0 01-2.112.153l-3.265-1.715L48.94 16.7a1.996 1.996 0 01-2.112-.152 1.993 1.993 0 01-.798-1.962l.623-3.634-2.642-2.574a1.994 1.994 0 01-.508-2.056 1.995 1.995 0 011.619-1.365l3.649-.532L50.4 1.12A1.993 1.993 0 0152.2 0c.77 0 1.459.428 1.8 1.117l1.632 3.307 3.65.53c.76.11 1.38.632 1.619 1.364a1.994 1.994 0 01-.507 2.056zm-2.21-1.173l-3.09-.447a2.007 2.007 0 01-1.51-1.098L52.2 2.858l-1.38 2.8a2.006 2.006 0 01-1.51 1.097l-3.09.45 2.236 2.178c.473.46.689 1.124.577 1.775l-.526 3.077 2.762-1.453a2.005 2.005 0 011.867 0l2.764 1.451-.529-3.076a2.002 2.002 0 01.577-1.776zM16.99 8.374l-2.64 2.574.625 3.635c.13.758-.175 1.51-.797 1.962a1.993 1.993 0 01-2.113.153L8.8 14.983 5.537 16.7a1.996 1.996 0 01-2.112-.152 1.993 1.993 0 01-.8-1.962l.624-3.634L.607 8.378A1.994 1.994 0 01.1 6.322a1.995 1.995 0 011.619-1.365l3.649-.532 1.63-3.306A1.994 1.994 0 018.796 0c.77 0 1.458.428 1.799 1.117l1.633 3.307 3.65.53c.76.11 1.38.632 1.619 1.364.237.731.043 1.52-.508 2.056zm-2.21-1.173l-3.09-.447a2.007 2.007 0 01-1.51-1.098L8.797 2.857l-1.38 2.8a2.006 2.006 0 01-1.511 1.098l-3.09.45 2.237 2.178c.473.46.689 1.125.577 1.775l-.526 3.077 2.762-1.453a2.005 2.005 0 011.867 0l2.763 1.451-.528-3.076a2.005 2.005 0 01.577-1.776zm2.19 19.034l2.182 9.04a13.95 13.95 0 002.308 4.983l4.273 5.847a1.192 1.192 0 11-1.924 1.406l-4.273-5.847a16.321 16.321 0 01-2.701-5.83l-2.181-9.04a4.195 4.195 0 012.198-4.75 4.19 4.19 0 015.603 1.76l1.125 2.082v-4.383a1.191 1.191 0 012.383 0V30.6a1.191 1.191 0 01-2.24.566l-3.364-6.23a1.82 1.82 0 00-2.434-.764 1.823 1.823 0 00-.955 2.063zm8.993-9.426a1.2 1.2 0 01-.35.842 1.2 1.2 0 01-.842.35 1.2 1.2 0 01-.842-.35 1.2 1.2 0 01-.35-.842c0-.314.128-.62.35-.842a1.2 1.2 0 01.842-.35 1.197 1.197 0 011.192 1.192z"/></symbol><symbol viewBox="0 0 17 14" id="arrow" xmlns="http://www.w3.org/2000/svg"><path d="M.955 5.677l-.027.005h11.377L8.728 2.13a.92.92 0 01-.271-.655c0-.246.096-.48.27-.654l.557-.552a.926.926 0 01.657-.27c.25 0 .483.096.657.27l6.13 6.077a.913.913 0 01.272.653.91.91 0 01-.271.654l-6.13 6.078a.924.924 0 01-.658.269.927.927 0 01-.657-.27l-.556-.551a.91.91 0 01-.271-.65c0-.248.096-.467.27-.64l3.617-3.574H.942A.959.959 0 010 7.37v-.78c0-.508.444-.912.956-.912z"/></symbol><symbol viewBox="0 0 10 12" id="contacts-addres" xmlns="http://www.w3.org/2000/svg"><path d="M.266 4.88a3.88 3.88 0 01-.038-.523c0-2.322 2.014-4.203 4.5-4.203s4.5 1.881 4.5 4.203c0 .175-.015.347-.037.516-.375 3.285-4.107 7.074-4.107 7.074a.69.69 0 01-.195.147l-.003.002-.126.036-.126-.036-.004-.002a.69.69 0 01-.194-.147S.65 8.164.266 4.88zm1.567-.523c0 1.49 1.299 2.705 2.894 2.705 1.597 0 2.895-1.214 2.895-2.705 0-1.49-1.298-2.704-2.895-2.704-1.595 0-2.894 1.214-2.894 2.704z"/></symbol><symbol viewBox="0 0 13 9" id="contacts-mail" xmlns="http://www.w3.org/2000/svg"><path d="M1.307 9.028c-.27 0-.504-.085-.703-.253l3.4-3.24.236.162c.254.178.46.317.62.418.157.1.368.202.632.306.263.104.509.157.736.157h.014c.227 0 .473-.053.737-.157.263-.104.474-.206.633-.306.158-.1.364-.24.618-.418l.236-.162 3.4 3.24a1.052 1.052 0 01-.703.253zM3.23 5.014L.235 7.87V2.94c.197.209.422.393.676.555.95.614 1.722 1.12 2.32 1.52zm9.004-2.074v4.93L9.24 5.014c.638-.425 1.413-.931 2.325-1.52.255-.166.478-.35.67-.555zM11.917.343c.212.2.318.44.318.72 0 .337-.11.658-.328.965a3.135 3.135 0 01-.817.785L8.634 4.438l-.678.448-.1.068c-.048.033-.11.074-.185.127a7.764 7.764 0 01-.71.45 2.087 2.087 0 01-.384.172 1.12 1.12 0 01-.334.057h-.015c-.102 0-.214-.019-.334-.057a2.038 2.038 0 01-.385-.172 6.994 6.994 0 01-.348-.207A12.108 12.108 0 014.8 5.08l-.184-.127-.1-.068-.676-.45c-.308-.205-.666-.442-1.08-.714-.763-.504-1.22-.808-1.372-.91a3.266 3.266 0 01-.783-.737c-.246-.313-.369-.603-.369-.871 0-.332.093-.608.279-.83.185-.22.449-.33.793-.33h9.856c.29 0 .542.099.754.299z"/></symbol><symbol viewBox="0 0 13 12" id="contacts-phone" xmlns="http://www.w3.org/2000/svg"><path d="M11.964 9.582l-1.852-1.855c-.37-.368-.98-.357-1.363.026l-.933.934c-.06-.033-.12-.066-.184-.103-.589-.327-1.396-.775-2.245-1.626-.85-.852-1.3-1.661-1.626-2.251a30.117 30.117 0 00-.1-.18l.625-.626.309-.31c.382-.382.392-.994.024-1.363L2.766.372C2.398.004 1.787.015 1.405.398L.882.923.897.94c-.176.223-.321.48-.43.759-.1.265-.163.518-.192.77C.031 4.5.957 6.356 3.472 8.874c3.477 3.48 6.278 3.218 6.399 3.206a3.122 3.122 0 001.528-.624l.011.01.53-.519c.381-.383.392-.995.024-1.364z"/></symbol><symbol viewBox="0 0 27 27" id="insta" xmlns="http://www.w3.org/2000/svg"><path d="M27.013 8.436v10.125c0 4.66-3.78 8.438-8.442 8.438H8.441A8.44 8.44 0 010 18.561V8.436C0 3.777 3.78 0 8.441 0h10.13c4.662 0 8.442 3.778 8.442 8.437zm-2.532 0a5.914 5.914 0 00-5.91-5.906H8.441a5.914 5.914 0 00-5.909 5.906v10.125a5.914 5.914 0 005.91 5.907H18.57c3.26 0 5.91-2.65 5.91-5.907zM20.26 13.5a6.752 6.752 0 01-6.753 6.75 6.753 6.753 0 01-6.754-6.75 6.753 6.753 0 016.754-6.75 6.752 6.752 0 016.753 6.75zm-2.533 0a4.224 4.224 0 00-4.22-4.219A4.225 4.225 0 009.285 13.5a4.226 4.226 0 004.222 4.219 4.225 4.225 0 004.22-4.22zm3.04-8.156a.9.9 0 110 1.799.9.9 0 010-1.8z"/></symbol><symbol viewBox="0 0 220 203" id="logo" xmlns="http://www.w3.org/2000/svg"><path d="M54.037 146.73l-.42.907-.421.978c-.375.698-.77 1.28-1.192 1.745a7.445 7.445 0 01-2.945 1.815h-.07l-.07.07-.28.07-.28.139c-.468.092-.842.14-1.122.14-.095 0-.701-.14-1.823-.42-1.262-.418-2.338-1.07-3.224-1.954v-.07c-.048-.047-.141-.186-.282-.418a5.005 5.005 0 01-.35-.699c-.42-.65-.655-1.07-.701-1.256-.187-.325-.56-1.768-1.122-4.328-.608-2.42-1.005-4.164-1.192-5.235l-.07-.629-.07-.627c-.094-.465-.094-.862 0-1.187v-.14c-.327-1.629-.49-3.094-.49-4.398v-.907l-.14-4.398v-3.28l.14-2.932c-.047-.42-.095-.884-.14-1.397v-1.326l.07-2.094.21-2.094c.14-1.86.21-3.258.21-4.189l.07-.698.14-.698.42-3.071c.095-.42.212-.953.352-1.606l.35-1.465.351-1.467.28-1.465c.093-.372.186-.791.28-1.257l-.28.419-.77 1.745c-.375.558-.866 1.699-1.473 3.42-.187.792-.35 1.396-.491 1.815-.14.466-.445 1.187-.911 2.164v.14c0 .418-.07.722-.21.907.045.42-.118.815-.49 1.187v.07l-.071.07v-.14l-.07.35-.141.348-.07.42c-.234.697-.35 1.14-.35 1.325 0 .234-.141.489-.42.768-2.385 10.146-3.74 16.59-4.067 19.336l-.35 2.443v-.14l-.211 1.676-.07.419-.14.419c-.048.326-.141.582-.28.767l-.351 1.397v1.814c-.095.885-.35 1.862-.77 2.932l-.633 1.327-.556 1.248c-.04.154-.088.273-.145.357l-.14.14-.07.07c-.048.046-.07.046-.07 0l-.14.21a2.8 2.8 0 01-1.192.697 1.82 1.82 0 01-.561.07c-.375 0-.678-.116-.911-.35-.14-.185-.21-.348-.21-.488l-.071-.209v-.21l-.14-.279v-.628l.07-.768c.117-.465.234-.816.35-1.056v-.06l.141-2.095.14-2.164c.234-1.116.467-2.559.702-4.328l.07-.698.07-.628c.093-.559.21-1 .35-1.326l1.612-8.238.141-.419.91-3.28.211-.488.422-1.606v-.07l.7-2.094.14-.559c.093-.558.396-1.256.911-2.094l.281-.698.14-.768.21-.768v.07l.21-.907.141-.838v-.07l.07-.07.28-.768.983-2.512.98-2.444.913-2.582.98-2.513.21-.42.211-.348c.093-.14.21-.395.35-.768.187-.419.281-.698.281-.838l.28-.558.281-.489 1.052-1.675 2.032-3.49.562-.978a6.74 6.74 0 012.242-1.675c.094 0 .234-.045.422-.14l.07-.07h.21l-.07.14c.326.094.607.21.841.35l.911.419c.701.372 1.168.814 1.403 1.325.373.792.677 2.723.912 5.794.092 1.164.162 2.258.209 3.281.046.977.046 1.56 0 1.745l-.07.559-.21 1.396c-.235.513-.375 1.28-.421 2.303.046.047.046.303 0 .768v1.676l-.07.767c-.047.652-.117 1.025-.21 1.117 0 1.164-.024 1.77-.07 1.815a.78.78 0 00-.07.349l-.071.558c0 .42-.024.653-.069.699-.14.093-.211.21-.211.35l-.07.348v.21c-.187.697-.375 1.699-.56 3-.095 1.397-.14 2.374-.14 2.933l1.19 5.445c.047 2.28.047 3.676 0 4.188-.14.885-.304 2.094-.49 3.63v.279l.07.279.07.279c.093.234.141.419.141.559.045.465 0 1.047-.14 1.745.185 1.769.325 3.071.42 3.908v.699c0 .233-.024.443-.07.628l.07 1.256v1.257l.07 1.396c-.048 3.166.396 4.608 1.332 4.328a1.06 1.06 0 00.35-.419c.141-.14.21-.279.21-.418l.842-1.536.701-1.536.14-.419.07-.07.071-.209.14-.14.28-.768.524-1.305a9.947 9.947 0 01-.314-1.486 106.2 106.2 0 01-.14-1.746l-.07-.838v-.767c0-.186.047-.512.14-.977v-.768c.375-2.978 1.8-5.561 4.276-7.749a16.952 16.952 0 013.015-2.164 23.006 23.006 0 013.855-1.955c1.683-.698 3.085-1.046 4.207-1.046.654 0 1.214.14 1.683.418l.28.14.35.21c.234.186.421.349.56.488.375-.698.796-.883 1.263-.559.607-.604 1.613-.464 3.015.42 1.356.837 2.103 1.652 2.243 2.442.14.56.116 1.257-.07 2.095l-.35 1.047-.21.977a2.472 2.472 0 000 .838l.069.419v.349c-.047.325-.21.792-.49 1.396l-.28.698-.211.698c-.562 2.328-1.637 5.444-3.225 9.354l.28 1.954c0 .14.047.326.14.559.094.28.234.465.421.558l.211.07.21.14h.42c.467-.094.772-.256.913-.489l.35-.35 1.05-1.325 1.123-1.397.28-.279.07-.14.14-.139.07-.14.492-.698 2.594-3.7 1.331-1.884c.234-.28.467-.628.701-1.047l.561-.907 1.122-1.955 1.052-1.955c.12-.215.246-.418.379-.609-.253-.286-.38-.524-.38-.717.047-.232.256-.651.63-1.256.422-.651.913-1.257 1.473-1.815 1.588-1.582 3.108-2.35 4.557-2.304 2.71.187 4.557.837 5.538 1.954.28.327.584.816.912 1.466v.07l.07.28v.349c.094.14.163.303.21.488l.07.419c.094.187.14.559.14 1.117.093.558.14 1.35.14 2.374 0 .046-.116.535-.35 1.465 0 .699-.07 1.443-.21 2.234l-1.473 2.304c-.747 1.535-1.846 3.537-3.294 6.003l.07 1.954v.21c-.047.094-.047.233 0 .419l.14.279.21.28.211.069.21.14c.14.046.28.069.42.069.234 0 .865-.045 1.894-.14l.42-.21c.094-.044.186-.114.28-.208.187-.279.28-.442.28-.489l1.052-1.396.982-1.396.42-.559.071-.139.49-.698 2.314-3.91 1.122-1.953c.28-.326.49-.675.63-1.048l.491-.977c.28-.464.607-1.14.982-2.024l.213-.424c.202-1.887.341-3.072.418-3.555l.21-.21.21-.279.281-.21a6.213 6.213 0 01.701-.767c.42-.28 1.144-.28 2.173 0 1.308 0 2.103.652 2.384 1.954.185 1.024.14 1.862-.14 2.513l-.35 1.466-.351 1.536c-.281 1.257-.468 2.35-.562 3.28a1.692 1.692 0 00-.21.35l-.21.488c-.187.466-.327.745-.42.838-.235.745-.095 1.164.42 1.256.186.047.724-.534 1.612-1.744l.491-.768.491-.699c.373-.557.63-.907.77-1.047 1.076-1.349 2.595-3.326 4.558-5.933v-.768c0-.28.046-.534.14-.768.14-.511.466-.79.981-.837a7.32 7.32 0 001.263-.14l.63-.14.632-.07c.887-.045 1.471.327 1.751 1.117l.142.28.14.21 1.822 7.12c.841-.792 1.332-1.28 1.473-1.466l.84-.978.842-.977.771-.908c.655-.837 1.168-1.441 1.543-1.815l.42-.488.42-.489.14-.069v-.56c0-.51.047-.952.14-1.326l.07-.418.07-.559.21-1.117c.187-.883.444-1.488.772-1.815.28-.883.981-1.79 2.103-2.722 1.262-1.023 2.29-1.257 3.085-.698a2.43 2.43 0 011.262.21c.794.279 1.261.744 1.4 1.396l.071.278v.28l-.07.628c-.093 1.025-.14 2.537-.14 4.537-.047 1.91-.024 3.445.07 4.608l.07 1.396 3.786-1.117 2.174-.558c.092-.233.186-.582.28-1.047.561-2.653 1.121-4.654 1.683-6.004.186-.511.373-.93.56-1.257.187-.279.35-.464.491-.558l.35-.21.351-.139.701-.14.701-.07h.771c.234.048.421.095.562.14.232.047.513.326.84.838 1.168.652 1.893 1.42 2.173 2.303.14.559.094 1.257-.14 2.095l-.28 1.047-.28.977v.42l.07.418v.768c-.047.325-.188.792-.421 1.396l-.28.698-.28.698c-.562 2.328-1.637 5.444-3.226 9.354l.351 1.954c0 .234.023.42.07.559.046.139.187.325.42.558.187.094.327.14.421.14.187.047.35.047.491 0 .14 0 .303-.046.491-.14l.21-.14.21-.139.07-.14.07-.069c.094-.093.141-.163.141-.21l1.122-1.326 1.122-1.327.28-.349v-.07l.14-.139.14-.21.491-.628 2.594-3.7 1.134-1.604c.02-.189.063-.445.127-.768v-.769c.375-2.977 1.8-5.56 4.277-7.748a16.958 16.958 0 013.015-2.164 22.974 22.974 0 013.856-1.955c1.682-.698 3.084-1.047 4.206-1.047.654 0 1.215.14 1.683.42l.28.14.35.209c.234.186.42.348.561.488.374-.698.794-.883 1.262-.559.607-.604 1.613-.464 3.015.42 1.355.837 2.103 1.652 2.244 2.442.14.559.115 1.257-.07 2.095l-.351 1.047-.211.977a2.515 2.515 0 000 .838l.07.419v.349c-.047.325-.21.792-.49 1.396l-.281.698-.21.698c-.561 2.328-1.637 5.444-3.225 9.354l.28 1.954c0 .14.046.326.14.559.094.28.234.465.421.558l.21.07.21.14h.422c.467-.094.77-.256.91-.489l.351-.35 1.052-1.325 1.121-1.397.281-.279.07-.14.14-.139.07-.14.491-.698 2.594-3.7 1.332-1.884c.233-.28.467-.628.7-1.047l.562-.907 1.122-1.955 1.051-1.955c.234-.418.49-.79.772-1.116.186-.28.42-.512.701-.699.326-.279.584-.349.77-.21.702.374.773 1.142.211 2.305-.748 1.536-1.753 3.42-3.014 5.654l-1.543 2.862-1.612 2.862a25.941 25.941 0 01-2.034 4.118c-.98 1.397-1.892 2.444-2.733 3.142-1.17.604-2.29.977-3.365 1.117h-.35l-.211.07h-.211c-.234 0-1.192-.304-2.874-.908-1.216-.883-2.058-1.769-2.524-2.653l-.07-.07-.07-.35-.14-.278-.14-.488-.141-.419c-.094-.14-.187-.49-.28-1.047-.14-.56-.234-1.442-.28-2.653a75.871 75.871 0 01-.141-1.186v-.559c-.094.187-.397.652-.911 1.396l-.912 1.117a6.36 6.36 0 01-1.122 1.117c-1.168 1.163-2.197 1.839-3.084 2.024-1.262.327-2.57.279-3.926-.14-1.402-.464-2.43-1.162-3.085-2.094-.404-.57-.71-1.286-.92-2.147l-.481.891c-.516 1.256-1.192 2.63-2.033 4.118-1.029 1.351-1.963 2.374-2.805 3.072-.936.558-2.057.953-3.365 1.187h-.42l-.28.07c-.422 0-.819-.07-1.193-.21-.047 0-.49-.187-1.332-.558l-.35-.14c-1.216-.883-2.08-1.791-2.594-2.723h-.07l-.07-.35-.07-.278-.14-.488-.14-.419a1.495 1.495 0 01-.21-.49v-.627c-.282-.838-.47-2.187-.562-4.049l.21-2.164c.094-.697.163-1.279.21-1.745.046-.65.094-1.162.141-1.535l-1.683.698-.84.349-.772.348c-.842.466-1.52.792-2.034.978l.28 5.654-.35 1.047c-.234.42-.397.792-.49 1.117a4.264 4.264 0 00-.07 1.326c.046.187.022.396-.07.628l-.351.629c-.094.233-.21.396-.35.488v.07c-.188.419-.561.722-1.122.908-.421.094-.935.116-1.543.07-.234 0-.538-.046-.91-.14-.28.14-.586.209-.913.209-.654 0-1.379-.28-2.173-.837a4.415 4.415 0 01-.28-.49 8.06 8.06 0 01-.42-1.046c-.28-1.023-.444-2.374-.492-4.049.048-.186.024-.535-.069-1.047l-.07-.559-.071-.209v-2.932h-.07l.194-3.587c-1.217 1.648-2.8 3.635-4.75 5.96l.07.63.912 3.28c0 .094.14.698.421 1.815.373 3.443.537 6.003.49 7.678.234 2.56-.397 6.655-1.893 12.286l-.49 1.327-.49 1.256-.422 1.326a33.039 33.039 0 01-1.192 2.723c-.14.558-.584 1.302-1.331 2.233-.235.233-.42.49-.561.768-.749.838-1.847 1.769-3.295 2.792a20.31 20.31 0 01-1.192.838c-.655.604-1.402 1-2.243 1.187l-.562.139-.63.14c-2.852.371-4.884-.186-6.1-1.675-.467-.513-.818-1.141-1.05-1.885a8.473 8.473 0 01-.562-1.745c-.515-3.817.023-7.656 1.612-11.518a61.38 61.38 0 01.842-2.025c.887-2.373 1.823-4.397 2.804-6.073 1.308-2.885 2.897-6.166 4.767-9.842.373-.651.655-1.117.842-1.396l.631-1.187c.28-.465.536-.838.77-1.117.14-.14.258-.349.351-.628.047-.046.071-.232.071-.559v-.627l-1.192-6.702-1.543 2.653-4.416 6.561c-.468.373-.818.768-1.052 1.187-.187.14-.49.257-.912.349-.84 0-2.15-.441-3.925-1.326-.608-.465-1.052-1.187-1.332-2.164-.142-.531-.244-1.196-.305-1.995l-.186.39-1.332 3.001c-.42 1.256-1.005 2.652-1.752 4.188l-.562.838-.63.838c-.468.652-.936 1.186-1.402 1.605-1.076.651-2.15 1.093-3.225 1.327h-.21a1.263 1.263 0 01-.561.139h-.491c-.561-.094-.981-.14-1.262-.14h-.77l-.562-.14-.56-.14c-.095-.092-.188-.138-.282-.138-.187-.048-.375-.164-.56-.35l-.35-.21-.352-.278c-1.075-.883-1.799-1.885-2.173-3.002l-.07-.07v-.279l-.07-.279c-.094-.465-.14-.79-.14-.977-.14-.28-.164-.652-.07-1.117a14.41 14.41 0 010-2.025l.14-2.024v-.279c.14-.978.632-2.885 1.472-5.724l.28-.558.211-.56c.326-1.069.655-1.953.981-2.652l.14-.279v-.21l.561-1.256c.187-1.256 0-1.907-.56-1.954a1.642 1.642 0 00-.42.279l-.211.14-.211.209-1.121 1.187-.701.628a7.511 7.511 0 01-.96.743c-.062.24-.163.504-.302.793-.748 1.535-1.752 3.42-3.015 5.654l-1.541 2.862-1.613 2.862a25.87 25.87 0 01-2.034 4.118c-.98 1.397-1.892 2.444-2.734 3.142-1.167.604-2.29.977-3.365 1.117h-.35l-.21.07h-.21c-.235 0-1.192-.304-2.875-.908-1.216-.883-2.058-1.769-2.524-2.653l-.07-.07-.07-.35-.14-.278-.14-.488-.141-.419c-.093-.14-.187-.49-.28-1.047-.14-.56-.234-1.442-.28-2.653a67.054 67.054 0 01-.14-1.186v-.559c-.095.187-.398.652-.912 1.396l-.912 1.117a6.386 6.386 0 01-1.121 1.117c-1.169 1.163-2.197 1.839-3.084 2.024-1.263.327-2.572.279-3.927-.14a8.005 8.005 0 01-1.273-.54c-.16.65-.343 1.272-.55 1.867zm11.988-12.006l.49-.63c0-.231.094-.627.281-1.185.045-.465.14-1.048.28-1.746l.28-.837.21-.908.14-.907.071-.838.28-.838c.141-.325.234-.604.28-.837.141-.326.445-.651.912-.978v-.139c0-.046.023-.07.07-.07l-.28-.07c-1.076.094-1.916.094-2.524 0h-.35l-.421.07-.49.14c-.14.14-.281.396-.421.767l-.14.49-.21.348-.28.42-.282.418c-.234.326-.397.605-.49.837a67.638 67.638 0 01-.842 2.025c-.094.186-.304.443-.63.768l-.351.349-.28.419c-.235.373-.398.861-.49 1.466l-.141.768-.14.767c-.14.838-.187 1.583-.14 2.234l.07.768v.698c0 .605.045 1.07.14 1.396.046.14.14.21.28.21.186.046.42 0 .701-.14.701-.372 1.636-1.35 2.804-2.932l.63-.907.282-.35.21-.348zm55.453 16.404v-1.466a57.535 57.535 0 00-.14-1.466l-.422.558-1.962 4.329c-.28.418-.958 1.744-2.033 3.978-1.122 2.28-1.847 3.862-2.174 4.747-.14.279-.397.907-.77 1.885l-.14.488-.211.489a4.8 4.8 0 01-.21.628l-.211.698-.28.698v.07l-.07.21-.14.349c-.14.371-.258.72-.35 1.047-.28 1.023-.421 1.744-.421 2.163v.07c-.095.837.045 2.094.42 3.77.466 1.116.748 1.675.84 1.675.655-.652 1.193-1.536 1.614-2.652 1.355-1.583 2.22-2.979 2.594-4.19.56-2 1.121-3.698 1.682-5.095l.631-2.024.632-1.955.14-.698c.14-.279.302-.814.49-1.605.046-.28.094-.536.14-.768.046-.234.07-.373.07-.419.281-1.676.374-3.514.281-5.514zm55.593-16.404l.49-.63c0-.231.094-.627.28-1.185.046-.465.141-1.048.282-1.746l.28-.837.21-.908.14-.907.07-.838.28-.838a4.3 4.3 0 00.28-.837c.142-.326.445-.651.912-.978v-.139c0-.046.023-.07.071-.07l-.281-.07c-1.076.094-1.917.094-2.524 0h-.35l-.42.07-.492.14c-.14.14-.28.396-.42.767l-.14.49-.21.348-.28.42-.282.418a4.169 4.169 0 00-.49.837 67.638 67.638 0 01-.842 2.025c-.094.186-.304.443-.63.768l-.35.349-.282.419c-.234.373-.397.861-.49 1.466l-.14.768-.14.767c-.14.838-.188 1.583-.14 2.234l.07.768v.698c0 .605.046 1.07.139 1.396.046.14.14.21.281.21.186.046.42 0 .701-.14.701-.372 1.636-1.35 2.804-2.932l.631-.907.28-.35.211-.348zm37.993-12.49a2.111 2.111 0 01-2.116-2.106c0-28.545-11.497-55.049-32.373-74.63a2.1 2.1 0 01-.09-2.977 2.12 2.12 0 012.99-.089c21.735 20.385 33.704 47.978 33.704 77.696a2.11 2.11 0 01-2.115 2.106zm-210.129 0a2.11 2.11 0 01-2.115-2.106 106.43 106.43 0 0125.95-69.626c16.558-19.135 39.4-31.84 64.32-35.773a2.114 2.114 0 012.42 1.751 2.107 2.107 0 01-1.758 2.41C43.514 26.82 7.05 69.396 7.05 120.128a2.11 2.11 0 01-2.116 2.106zm4.936 11.233c0 2.715-2.21 4.915-4.936 4.915S0 136.182 0 133.467c0-2.714 2.21-4.914 4.935-4.914 2.726 0 4.936 2.2 4.936 4.914zm210.129 0c0 2.715-2.21 4.915-4.936 4.915s-4.937-2.2-4.937-4.915c0-2.714 2.21-4.914 4.937-4.914 2.725 0 4.936 2.2 4.936 4.914zM121.57 1.417C124.43.182 127.94-.287 130.672.2c1.53.273 4.354 1.717 6.016 3.075 2.663 2.176 4.077 4.26 5.235 7.714.607 1.813.852 2.329 1.078 2.267.305-.083.24-.523-.38-2.52l-.404-1.307 1.92-1.234c4.34-2.79 7.793-3.683 13.282-3.433 4.852.22 8.383 1.822 9.896 4.49.389.685.787 1.54.887 1.903l.182.659-1.46-.663c-.813-.37-1.804-.703-2.237-.753-.432-.05-1.024-.272-1.331-.5-.303-.226-.95-.647-1.429-.933l-.876-.52.349.925.35.925-1.837.586c-1.674.533-1.907.559-2.63.29-1.125-.419-1.312-.295-.957.628.283.735.265.8-.359 1.317-.623.517-.7.532-1.58.303-1.24-.323-1.663-.026-1.15.808.525.857.525.918.01 1.049-.26.065-1.235.492-2.175.95-1.42.692-1.648.864-1.36 1.028.292.165.646.064 2.212-.631 2.74-1.218 4.098-1.538 6.229-1.466 5.64.188 12.52 3.146 15.841 6.81 3.375 3.722 5.58 9.931 4.848 13.653-.16.815-.387 1.508-.498 1.521-.111.014-.673-.576-1.252-1.314-.578-.737-1.457-1.679-1.96-2.099-.718-.6-.97-.974-1.188-1.768-.343-1.24-1.017-2.817-1.183-2.765-.063.02-.267.474-.459 1.026l-.344.99-1.599-.865c-.885-.479-1.885-.956-2.24-1.069-.626-.199-1.679-1.453-1.903-2.267-.196-.71-.507-.34-.932 1.11-.01.037-1.111-.172-2.448-.466-1.336-.294-2.86-.566-3.39-.604-.52-.039-1.589-.3-2.333-.572-1.536-.56-1.765-.57-1.602-.06.065.203.946.64 2.15 1.065 2.69.95 6.997 3.104 8.151 4.075 2.367 1.993 4.77 5.862 5.974 9.616.735 2.29.884 3.071 1.235 6.454.368 3.545.452 7.12.218 9.315-.116 1.095-.577 2.012-1.079 2.15-.335.09-.426-.103-.96-2.04-.327-1.181-.8-2.512-1.06-2.97-.39-.689-.483-1.16-.544-2.768-.09-2.371-.09-2.371-.516-1.714-.648 1-.733.993-1.425-.13a17.882 17.882 0 00-1.427-1.964c-.898-1.039-1.002-1.372-1.577-5.069-.243-1.558-.542-3.091-.67-3.431-.222-.586-.278-.497-1.244 1.976l-1.012 2.59-1.16-.715c-.816-.503-1.407-1.084-1.996-1.965-.507-.757-1.04-1.317-1.355-1.42-.501-.166-.483-.119.59 1.525 1.502 2.298 2.265 4.488 2.141 6.144-.264 3.548-2.462 8.356-6.955 15.206-1.325 2.021-1.918 2.432-2.498 1.733-.273-.33-.297-.814-.123-2.529.277-2.742.384-5.34.242-5.857-.062-.221.289-1.163.769-2.065.48-.902 1.124-2.18 1.413-2.803l.531-1.145-1.632.946c-.902.523-1.652.928-1.675.906-.024-.022-.46-1.05-.98-2.305-1.184-2.863-1.624-4.673-1.581-6.505l.034-1.446-.715 1.237-.716 1.237-1-1.007c-.573-.578-2.053-1.601-3.465-2.396l-2.466-1.389.19-.718c.103-.393.342-1.208.528-1.8l.34-1.083-.454.895c-.254.5-.744 1.453-1.11 2.157-2.531 4.88-4.569 9.141-6.441 13.47-1.22 2.818-5.305 13.388-6.683 17.285-3.245 9.185-4.032 12.582-5.943 25.667-.949 6.489-1.906 12.191-1.83 15.106.023.827 0 1.62-.049 1.753-.05.135.004.655.121 1.164.595 2.588.309 3.328-1.013 2.62-2.532-1.358-7.635-1.052-10.025.6-.528.365-1.23.75-1.545.847-.54.167-.58.14-.595-.41-.008-.323-.153-1.396-.319-2.37a43.777 43.777 0 01-.423-3.437c-.103-1.434-.702-3.35-1.168-6.68-.083-.598.087 3.078-1.097-4.077-.789-4.776-1.424-7.59-2.995-13.285-1.69-6.121-2.508-8.535-4.094-12.067-2.732-6.086-6.882-12.707-8.392-13.387-.333-.15-.447.033-.88 1.402-.273.866-.553 1.588-.623 1.608-.068.018-.41-.138-.74-.34-.709-.43-1.209-.39-1.077.087.047.17.384.843.747 1.493l.661 1.184-.681 3.749-.807-.457c-.446-.253-.853-.374-.91-.271-.059.1.306 1.01.802 1.999.734 1.466.89 1.927.81 2.403-.055.326.013.997.152 1.5.14.504.181.93.095.953-.301.083-2.3-1.204-3.087-1.989-1.295-1.291-2.644-3.464-3.04-4.897-.369-1.337-.646-3.959-.555-5.244.03-.404-.015-.783-.095-.828-.39-.221-.67.412-.64 1.445l.034 1.137-.582-.424c-.975-.71-1.201-.442-.705.839.408 1.055.41 1.195.026 2.107l-.41.977-.872-.595c-1.225-.836-1.315-.495-.458 1.73.669 1.733.69 1.87.493 3.302-.113.822-.37 1.857-.573 2.302-.511 1.129-.871.968-2.97-1.334-2.523-2.767-3.326-4.451-3.366-7.058-.044-2.883.586-5.088 2.314-8.097.636-1.108 1.133-2.115 1.1-2.232-.111-.403-.563-.068-1.164.862-.41.636-.778.964-1.226 1.094a5.948 5.948 0 00-1.055.424c-.338.194-.51.118-.93-.413-.284-.36-.636-.617-.787-.576-.152.042-.36.546-.47 1.139-.175.942-.351 1.192-1.526 2.167-.732.608-1.368 1.114-1.416 1.127-.047.013-.367-.545-.7-1.225-.993-2.014-1.366-1.48-1.609 2.294-.109 1.697-.232 2.103-1.104 3.656-1.533 2.731-1.815 2.58-2.233-1.202-.256-2.325-.036-3.837.853-5.858 2.64-5.994 7.06-9.66 13.91-11.533 1.498-.41 1.91-.587 1.851-.798-.082-.296-1.006-.308-2.037-.026-.345.094-.96.044-1.381-.112a11.845 11.845 0 00-1.38-.414c-.623-.132-.623-.132-.488-.898.072-.416.053-.815-.043-.874-.097-.06-.565.224-1.04.629l-.864.736-2.066-.018c-1.133-.01-2.179-.082-2.314-.16-.332-.186.315-1.128 1.642-2.39.708-.673 1.43-1.109 2.619-1.578 3.774-1.49 7.77-1.255 11.067.651 1.173.68 1.648.76 1.509.255-.03-.107-.49-.47-1.018-.806l-.964-.61.19-1.01c.281-1.504 1.828-4.572 3.186-6.322 1.606-2.069 4.014-4.465 5.255-5.227 1.986-1.22 3.296-.54 2.403 1.25-.348.696-.581.881-1.551 1.233-1.255.456-1.392.864-.332.994l.67.083-.554 2.006-1.328.27c-1.249.253-1.321.294-1.21.695.063.232.19.411.275.393.089-.018.5.062.93.183l.771.217-.614.96c-.584.914-.688 1.583-.225 1.457.118-.033.642-.703 1.176-1.502 1.183-1.775 2.407-2.576 4.98-3.26 1.443-.382 2.09-.442 3.307-.302 1.97.226 4.507 1.618 6.103 3.348 2.257 2.445 2.154 2.915-.626 2.853l-1.81-.041-.91-1.001c-1.155-1.268-1.684-1.166-1.277.245l.272.946-1.365.248c-.757.138-1.401.203-1.447.146-.467-.58-1.34-1.196-1.595-1.126-.269.073-.263.239.03.867.38.812.327.883-.825 1.109-.616.12-1.806 1.09-1.64 1.336.162.24.286.204 1.43-.427 1.206-.665 2.643-.736 5.162-.254 3.666.7 6.954 3.163 9.782 7.328 1.455 2.143 4.464 7.354 5.05 8.743.29.692.157 1.436-.28 1.555-.22.06-1.372-.686-2.373-1.538a12.596 12.596 0 00-1.805-1.245c-.76-.411-.98-.66-1.178-1.335-.678-2.314-1.645-3.133-1.711-1.449-.018.464-.076.925-.129 1.025-.053.102-.625.01-1.292-.209a35.188 35.188 0 00-2.183-.632c-.65-.158-1.077-.407-1.25-.731-.466-.872-2.503-3.612-2.845-3.826-.656-.411-.706.151-.152 1.73.7 1.995.647 2.129-.862 2.137-.647.004-1.383.055-1.611.112-.235.058-.987-.22-1.7-.63-1.777-1.019-2.412-.798-1.402.488.673.858.627 1.164-.236 1.583-.388.188-.891.5-1.126.696l-.425.356.767.582c2.036 1.543 4.811 4.6 6.652 7.326 2.015 2.986 2.93 4.657 6.233 11.378 1.614 3.286 4.858 12.963 7.445 22.214.096.34.138.316.354-.201.136-.324.577-2.012.98-3.748.73-3.136 2.226-8.283 3.198-10.999 1.24-3.464 3.19-8.634 3.376-8.953.148-.252.857-2.121 1.295-3.407.25-.735.688-1.789.977-2.35.287-.558.646-1.401.794-1.864a13.29 13.29 0 01.78-1.796c.276-.513.59-1.162.68-1.405a32.75 32.75 0 01.75-1.684c.32-.678 1.02-2.185 1.557-3.353 2.913-6.324 4.388-9.2 8.5-16.575 1.932-3.465 3.748-6.764 4.022-7.308l.5-.99-.642.852c-.35.464-1.032 1.23-1.494 1.68l-.85.825-1.533-.288a52.51 52.51 0 01-1.594-.314c-.033-.014-.005-.561.06-1.225.066-.664.08-1.221.033-1.248-.049-.027-.599.487-1.216 1.134l-1.127 1.183-1.812.069c-.995.037-2.256.124-2.794.19l-.98.123-.18-1.065-.179-1.066-1.81 2.766-1.674.458c-.914.25-2.076.629-2.563.836l-.889.379-.41-1.94-.41-1.94-.536 1.24a36.344 36.344 0 00-.985 2.613c-.402 1.231-.616 1.52-2.084 2.8-1.837 1.606-3.468 3.988-4.243 6.201-.697 1.99-1.024 1.885-1.637-.531-1.12-4.423-.26-10.069 2.226-14.609 1.9-3.466 4.137-5.693 7.303-7.265 3.432-1.705 8.93-1.834 13.805-.324.686.212 1.346.365 1.453.336.475-.13-.028-.705-.796-.912-.95-.257-.95-.257-.81-1.357.058-.454.048-.805-.021-.786-.07.02-.593.32-1.165.673-1.002.616-1.077.633-2.196.496a73.992 73.992 0 00-2.422-.244l-1.263-.102.073-.989c.04-.553.007-1.026-.076-1.073-.083-.046-.65.335-1.28.86-1.072.896-1.188.946-2.217.95-.59.004-1.63.091-2.27.192-1.927.301-1.832.354-2.172-1.206l-.305-1.396-1.603 3.064-2.562.836c-1.402.458-2.8.977-3.085 1.146-.487.29-.532.27-.687-.291-.091-.33-.25-.648-.352-.706-.1-.057-.531.5-.941 1.215-.561.983-1.103 1.575-2.115 2.308a109.08 109.08 0 00-2.59 1.948c-.999.78-1.281.916-1.494.72-.37-.338-.248-.973.782-4.088 1.039-3.138 2.88-6.62 4.414-8.352 1.213-1.367 3.767-3.627 4.979-4.406 3.003-1.931 7.137-3.176 10.317-3.105 5.516.121 9.98 2.056 14.047 6.09 1.054 1.044 1.272 1.18 1.29.803.014-.3-.318-.809-.98-1.503l-1-1.05.394-.732.393-.733-.956.022c-.79.018-1.026-.084-1.355-.588a35.027 35.027 0 00-1.012-1.43l-.614-.823.447-.882.447-.883-.599.028c-.322.016-.967.062-1.396.101-.449.04-.827-.042-.868-.19-.04-.145-.686-.729-1.45-1.311l-1.378-1.05.453-.75.452-.748-1.49.022c-.813.012-1.677.068-1.901.124-.229.057-1.018.027-1.776-.066-1.136-.14-1.715-.072-3.447.401-3.035.83-3.203.342-.532-1.546 2.19-1.547 2.816-1.912 4.544-2.647.936-.398 2.1-.895 2.583-1.103zm41.056 74.318c2.394-.46 5.21-.113 6.963.858.914.506 3.074 2.57 3.51 3.354.678 1.22-.066 1.434-1.14.328-1.406-1.447-2.224-1.96-3.85-2.412-3.07-.855-6.21-.199-7.982 1.666-.759.8-2.115 2.557-2.12 2.748-.002.12-.174.564-.38.982-.204.419-.374.913-.374 1.092 0 .182-.085.38-.192.446s-.191.318-.191.573c0 .255-.077.5-.174.555-.095.055-.232.537-.303 1.065-.166 1.237-.624 2.2-1.168 2.45-.533.246-1.357-.212-2.246-1.25-2.915-3.395-5.228-4.35-8.72-3.602-2.01.43-2.634.755-4.057 2.109-.877.834-1.245 1.074-1.407.917-.361-.35-.001-.97 1.345-2.317 2.142-2.14 2.986-2.686 5.508-3.554 1.355-.466 1.682-.508 3.053-.401 1.59.124 2.998.728 4.13 1.77.62.57.732.548 1.056-.216.152-.357.674-1.22 1.148-1.893 2.026-2.882 4.649-4.702 7.59-5.268zm29.35 13.87c1.388-.235 3.622.131 4.496.739 1.005.699 2.425 2.274 2.372 2.632-.096.653-.454.549-1.514-.44-1.206-1.124-2.787-1.812-3.801-1.653-.768.12-2.321.73-2.321.91 0 .071-.439.476-.987.913-.852.677-2.015 2.054-3.489 4.128-.249.35-.495.476-.86.437-.406-.043-.62-.273-1.038-1.11-.49-.983-.896-1.6-1.451-2.202-.134-.146-.234-.325-.234-.419 0-.2-1.097-.935-1.773-1.187-.916-.34-2.302.092-3.38 1.055-1.006.898-1.369 1.035-1.363.515.007-.574.43-1.134 1.49-1.975 1.635-1.296 3.728-1.687 5.464-1.02.841.324 1.682.957 1.682 1.266 0 .1.196.419.438.71l.439.527.747-.855c1.214-1.392 3.438-2.692 5.082-2.97zm-29.113 11.509c1.462-.375 5.702.218 5.702.797 0 .093.11.164.256.164.507 0 2.248 2.129 2.248 2.747 0 .576-.42.514-1.188-.175-1.509-1.356-3.801-1.93-5.647-1.415-1.293.361-3.298 2.282-4.148 3.974-.357.71-.7 1.302-.777 1.338-.078.036-.141.2-.146.382-.005.176-.174.682-.38 1.137-.677 1.492-1.894 1.533-2.687.09-1.32-2.401-2.513-3.936-3.32-4.272-.895-.372-2.626-.305-3.362.13-.33.195-.608.403-.613.458-.005.056-.22.346-.484.655-.265.31-.475.66-.475.791 0 .328-.74.574-.987.328-.354-.352.397-1.856 1.49-2.984 2.128-2.197 4.431-2.842 6.77-1.894.603.244 1.937 1.486 1.937 1.803 0 .06.676-.554 1.499-1.361 1.443-1.416 2.917-2.336 4.312-2.693zm-55.96 59.867c-.266.84-1.06 1.255-1.925 1.44-.106.023-.198.107-.328.235-1.113 1.087-5.562 4.193-7.383 5.154-3.122 1.647-4.915 2.162-7.503 2.155-3.121-.008-4.826-.306-6.542-1.144-1.46-.713-3.738-2.655-4.652-3.967l-.43-.617-1.3 1.194c-3.547 3.258-7.003 4.997-11.045 5.557-1.952.271-3.58.053-5.661-.76-2.541-.992-4.366-2.097-5.963-3.613l-1.54-1.462-.56.391c-.618.43-2.841 1.288-4.662 1.798-2.261.632-8.572 1.756-10.824 1.927-3.482.264-8.773.16-10.644-.212-2.04-.404-3.722-1.15-3.722-1.653 0-.453.321-.464 1.481-.05 1.573.56 2.941.746 5.442.741 5.222-.009 10.18-1.071 15.145-3.244 2.442-1.068 7.534-3.885 8.583-4.747.46-.378.99-.609 1.402-.609.591 0 .777.18 1.794 1.734 2.62 4.004 5.453 5.813 9.089 5.804 2.61-.006 4.262-.655 7.543-2.966a44.333 44.333 0 005.001-4.1c.741-.696 1.347-1.102 1.581-1.06.217.04.678.628 1.07 1.365 1.345 2.523 4.032 4.782 6.673 5.61 1.68.528 4.783.643 6.402.237 2.79-.698 4.662-1.911 8.823-5.717 1.781-1.629 2.737-2.361 3.082-2.361.213 0 .536.183.999.574.633.533.88 1.407.63 2.194zM78.18 179.556c.68-.448 1.322-.817 1.42-.817.265 0 .954.757 1.307 1.435.779 1.496 4.155 3.902 6.857 4.884 1.793.653 4.621.662 7.962.026 2.402-.457 3.316-.395 3.112.21-.12.352-3.552 1.59-5.373 1.937-2.79.532-6.402.283-10.023-.691-1.22-.329-4.591-1.977-4.83-2.362-.264-.428-.952-.104-3.353 1.579-4.302 3.014-6.703 3.934-10.224 3.918-2.661-.012-4.884-.416-6.062-1.104-.513-.299-1.74-1.146-2.701-1.863-.96-.717-1.965-1.31-2.21-1.305-.25.005-1.271.343-2.291.758-2.801 1.139-9.722 2.619-12.245 2.619-.932 0-.52-.518.8-1.007 4.036-1.492 5.962-2.373 10.144-4.638 2.54-1.376 4.811-2.503 5.042-2.503.569 0 .681.1 2.152 1.912 2.215 2.73 3.608 3.749 5.83 4.268 2.735.637 5.562-.5 10.505-4.223 1.62-1.221 3.498-2.583 4.181-3.033zm5.962 16.036c5.502-3.645 5.9-3.796 6.486-2.45 1.188 2.73 1.7 3.589 2.777 4.656 1.902 1.885 4.482 2.774 6.603 2.276 2.294-.538 3.781-1.545 7.302-4.942 1.481-1.429 2.834-2.587 3.021-2.587.363 0 .677.299 2.3 2.191 1.313 1.53 3.042 2.652 5.123 3.323 2.001.644 4.714 1.18 5.983 1.18.52 0 1.029.109 1.11.239.151.24 3.63.158 6.132-.146 2.162-.263.84.662-1.62 1.133-2.722.522-8.931.795-10.824.477-3.802-.638-5.769-1.4-7.463-2.89l-.96-.846-.84.746c-1.653 1.465-3.902 2.745-6.843 3.892-1.64.64-3.442.715-5.902.248-2.921-.554-5.493-2.29-7.208-4.866l-.756-1.135-.66.488c-1.867 1.382-8.363 4.621-11.283 5.628-2.18.75-4.425.98-5.463.56l-.74-.301.74-.23c.413-.127 1.2-.291 1.781-.37.92-.126 4.422-1.746 5.802-2.686.276-.187 2.701-1.798 5.402-3.588zm68.876-30.978c1.78-1.628 2.736-2.36 3.08-2.36.345 0 .975.478 2.022 1.534.83.836 2.093 1.9 2.78 2.338 6.483 4.138 17.388 5.965 23.57 3.947 1.36-.444 1.797-.513 2-.315.453.441-.12.93-1.96 1.67-3.41 1.37-4.162 1.515-8.484 1.64-4.442.128-6.545-.066-9.883-.91-2.36-.597-5.886-2.2-7.143-3.247a54.62 54.62 0 00-2.01-1.568c-1.141-.844-1.181-.856-1.572-.475-1.112 1.087-5.56 4.194-7.382 5.154-3.121 1.647-4.915 2.163-7.503 2.156-3.12-.009-4.725-.553-6.542-1.145-.823-.268-2.374-1.427-3.505-2.331-.779-.623-.969-1.699-.511-2.583l.092-.18c.612-1.225 2.243-1.574 3.229-.622 1.316 1.273 2.914 2.282 4.496 2.779 1.681.527 4.784.642 6.403.236 2.79-.699 4.661-1.912 8.823-5.718"/></symbol><symbol viewBox="0 0 30 30" id="phone" xmlns="http://www.w3.org/2000/svg"><path d="M28.86 26.014l-1.53 1.53a1.787 1.787 0 01-1.772.455l-.32.321c-1.115 1.114-2.67 1.68-4.534 1.68-1.137 0-2.388-.21-3.727-.634-3.331-1.056-6.86-3.331-9.937-6.408C3.964 19.88 1.69 16.35.633 13.02c-1.078-3.403-.774-6.249.853-8.056.024-.031.513-.525.513-.525a1.8 1.8 0 01.455-1.772l1.53-1.529c.34-.34.791-.527 1.271-.527.481 0 .933.187 1.274.527l5.877 5.879a1.802 1.802 0 010 2.545l-1.528 1.528a1.793 1.793 0 01-1.773.456l-.576.577c-.41.41.22 2.961 3.303 6.044 3.083 3.083 5.634 3.712 6.043 3.302l.578-.577a1.799 1.799 0 01.455-1.772l1.528-1.528a1.802 1.802 0 012.545 0l5.879 5.877a1.8 1.8 0 010 2.545zM3.726 3.94l2.94 2.938 2.916 2.918.022.022h.001l1.528-1.53L5.255 2.41zm20.4 22.945l-4.561-4.562-.418.418c-.437.437-1.01.632-1.672.632-1.966 0-4.706-1.723-6.917-3.935-2.954-2.953-5.037-6.85-3.303-8.587l.419-.42-4.562-4.56-.163.162c-1.295 1.294-1.508 3.583-.602 6.443.971 3.062 3.09 6.332 5.965 9.208 2.877 2.877 6.148 4.995 9.21 5.965 2.86.907 5.148.693 6.442-.601zm3.46-2.143l-5.878-5.878-1.529 1.528 5.879 5.879 1.528-1.529zm-2.152-11.118a.9.9 0 01-1.8 0 7.21 7.21 0 00-2.126-5.135 7.214 7.214 0 00-5.135-2.127.9.9 0 110-1.798 9 9 0 016.407 2.653 9.002 9.002 0 012.654 6.407zm4.564 0a.9.9 0 01-1.8 0 11.75 11.75 0 00-3.463-8.362A11.748 11.748 0 0016.374 1.8a.9.9 0 110-1.8c3.639 0 7.061 1.417 9.634 3.99a13.536 13.536 0 013.99 9.635zm-9.128 0a.9.9 0 11-1.8 0c0-.732-.273-1.39-.79-1.907a2.61 2.61 0 00-1.907-.79.9.9 0 110-1.8c1.219 0 2.318.455 3.18 1.317a4.409 4.409 0 011.317 3.18z"/></symbol><symbol viewBox="0 0 27 16" id="vk" xmlns="http://www.w3.org/2000/svg"><path d="M26.854 14.451a1.804 1.804 0 00-.091-.182c-.469-.876-1.363-1.952-2.685-3.227l-.027-.03-.014-.012-.014-.016h-.015c-.6-.594-.979-.993-1.137-1.197-.292-.389-.357-.783-.198-1.183.113-.302.534-.939 1.265-1.912.384-.516.689-.93.914-1.241 1.62-2.238 2.324-3.67 2.108-4.292l-.084-.146c-.057-.088-.201-.167-.435-.24-.235-.073-.534-.086-.9-.037l-4.048.029a.509.509 0 00-.28.007l-.184.044-.07.037-.056.044a.64.64 0 00-.155.153 1.025 1.025 0 00-.14.256 24.324 24.324 0 01-1.504 3.284 31.749 31.749 0 01-.956 1.569c-.29.444-.534.77-.73.979a5.187 5.187 0 01-.535.503c-.16.127-.28.18-.365.161a8.558 8.558 0 01-.24-.059.96.96 0 01-.315-.357 1.66 1.66 0 01-.162-.57 6.813 6.813 0 01-.05-.591c-.003-.166-.002-.399.008-.7.01-.303.014-.507.014-.614 0-.37.007-.772.021-1.204l.035-1.03c.01-.252.014-.52.014-.802a3.52 3.52 0 00-.049-.664 2.293 2.293 0 00-.148-.467.774.774 0 00-.287-.351 1.603 1.603 0 00-.471-.197c-.497-.118-1.13-.18-1.897-.19-1.744-.02-2.863.097-3.36.35a1.871 1.871 0 00-.534.438c-.169.214-.192.33-.07.35.562.088.96.297 1.194.628l.084.175c.067.127.132.35.198.672.066.321.107.676.126 1.066.047.71.047 1.318 0 1.824s-.091.901-.134 1.183a2.425 2.425 0 01-.19.686c-.084.175-.14.282-.168.322a.257.257 0 01-.07.072 1.023 1.023 0 01-.38.073c-.131 0-.29-.068-.477-.204a3.415 3.415 0 01-.584-.563 7.499 7.499 0 01-.681-1 18.052 18.052 0 01-.788-1.518l-.224-.423c-.141-.272-.332-.67-.577-1.19a23.603 23.603 0 01-.646-1.511.959.959 0 00-.337-.467l-.07-.044a.956.956 0 00-.225-.124 1.46 1.46 0 00-.324-.095l-3.85.03c-.395 0-.661.092-.802.277L.046 1.1a.489.489 0 00-.042.234c0 .107.028.238.084.394a48.794 48.794 0 001.834 3.97c.66 1.276 1.235 2.303 1.721 3.08.488.78.985 1.515 1.49 2.206.506.69.841 1.133 1.006 1.328.163.195.292.34.386.438l.351.35c.225.234.555.514.991.84.436.325.919.647 1.448.963.53.317 1.146.574 1.848.774.703.2 1.387.28 2.052.241h1.616c.329-.03.576-.136.746-.321l.055-.073a.97.97 0 00.106-.27c.032-.122.049-.256.049-.402a5.03 5.03 0 01.091-1.13c.07-.336.15-.59.24-.76a1.834 1.834 0 01.54-.642.838.838 0 01.112-.05c.225-.08.49-.004.795.225.305.229.59.512.857.847.268.336.588.712.963 1.131.375.419.703.73.984.934l.281.176c.187.116.431.224.731.32.3.098.562.123.787.074l3.597-.059c.357 0 .633-.06.83-.182.196-.121.314-.255.352-.401.037-.146.04-.312.006-.497a1.852 1.852 0 00-.099-.387z"/></symbol><symbol viewBox="0 0 28 20" id="youtube" xmlns="http://www.w3.org/2000/svg"><path d="M28 7.54v4.92c0 3.118-.485 4.92-1.622 6.024C25.271 19.56 23.558 20 20.468 20H7.53c-6.366 0-7.532-2.54-7.532-7.54V7.54c0-2.581 0-4.446.982-5.712C1.988.529 3.886-.001 7.531-.001h12.936c3.565 0 5.43.498 6.441 1.717C27.923 2.941 28 4.816 28 7.539zm-9.54 2.325a.918.918 0 00-.486-.813l-5.875-3.096a.893.893 0 00-.885.03.918.918 0 00-.434.784v6.212c0 .32.165.618.435.785a.896.896 0 00.886.027l5.874-3.115a.916.916 0 00.486-.814z"/></symbol></svg>