<svg xmlns="http://www.w3.org/2000/svg" width="53" height="48" viewBox="0 0 53 48"><g><g><path fill="#2c2c2c" d="M52.999 46.666c0 .737-.592 1.334-1.325 1.334-1.807 0-2.76-.958-3.454-1.658-.604-.608-.898-.876-1.58-.876s-.976.268-1.581.876c-.695.7-1.646 1.658-3.454 1.658-1.807 0-2.76-.958-3.455-1.658-.604-.608-.898-.876-1.58-.876s-.976.268-1.581.876c-.694.7-1.647 1.658-3.455 1.658s-2.76-.958-3.454-1.658c-.604-.608-.898-.876-1.579-.876-.68 0-.977.268-1.581.876-.695.7-1.647 1.658-3.453 1.658-1.809 0-2.759-.958-3.457-1.658-.603-.608-.9-.876-1.58-.876-.682 0-.977.268-1.582.876-.693.7-1.647 1.658-3.455 1.658-1.806 0-2.758-.958-3.453-1.658-.603-.608-.898-.876-1.58-.876-.681 0-.976.268-1.581.876-.694.7-1.647 1.658-3.455 1.658A1.329 1.329 0 0 1 0 46.666c0-.737.593-1.333 1.325-1.333.682 0 .978-.268 1.581-.877.695-.699 1.646-1.657 3.454-1.657 1.807 0 2.76.958 3.455 1.657.604.609.898.877 1.58.877.681 0 .976-.268 1.582-.877.694-.699 1.647-1.657 3.454-1.657 1.807 0 2.76.958 3.455 1.657.604.609.901.877 1.58.877.681 0 .976-.268 1.58-.877.695-.699 1.647-1.657 3.455-1.657 1.809 0 2.759.958 3.454 1.657.603.609.898.877 1.58.877s.977-.268 1.582-.877c.695-.699 1.646-1.657 3.454-1.657 1.806 0 2.759.958 3.454 1.657.604.609.899.877 1.581.877.68 0 .975-.268 1.58-.877.694-.699 1.646-1.657 3.455-1.657 1.808 0 2.758.958 3.453 1.657.604.609.9.877 1.581.877.733 0 1.325.596 1.325 1.333zm0-5.465c0 .736-.592 1.333-1.324 1.333-1.808 0-2.76-.958-3.456-1.658-.604-.608-.898-.876-1.58-.876-.681 0-.976.268-1.581.876-.694.7-1.646 1.658-3.453 1.658s-2.76-.958-3.455-1.658c-.604-.608-.9-.876-1.581-.876-.68 0-.975.268-1.58.876-.694.7-1.647 1.658-3.455 1.658s-2.76-.958-3.454-1.658c-.604-.608-.898-.876-1.579-.876-.68 0-.977.268-1.58.876-.696.7-1.648 1.658-3.454 1.658-1.808 0-2.759-.958-3.455-1.658-.605-.608-.9-.876-1.582-.876-.681 0-.976.268-1.581.876-.694.7-1.646 1.658-3.455 1.658-1.807 0-2.758-.958-3.454-1.658-.603-.608-.898-.876-1.58-.876-.681 0-.976.268-1.58.876-.695.7-1.648 1.658-3.456 1.658A1.329 1.329 0 0 1 0 41.201c0-.737.593-1.333 1.325-1.333.682 0 .978-.27 1.582-.877.695-.7 1.646-1.658 3.454-1.658 1.807 0 2.76.958 3.454 1.658.604.608.898.877 1.58.877.681 0 .976-.27 1.581-.877.618-.622 1.477-1.412 2.925-1.587V8c0-4.412 3.566-8 7.95-8 4.383 0 7.95 3.588 7.95 8 0 .737-.593 1.333-1.326 1.333A1.329 1.329 0 0 1 29.15 8c0-2.941-2.377-5.333-5.3-5.333-2.922 0-5.3 2.392-5.3 5.333v8H37.1V8c0-4.412 3.567-8 7.95-8C49.434 0 53 3.588 53 8a1.33 1.33 0 0 1-1.326 1.333A1.329 1.329 0 0 1 50.348 8c0-2.941-2.377-5.333-5.3-5.333-2.922 0-5.3 2.392-5.3 5.333v30.728c.092.089.193.18.275.263.604.608.9.877 1.581.877.681 0 .976-.27 1.58-.877.695-.7 1.647-1.658 3.456-1.658 1.808 0 2.758.958 3.453 1.658.604.608.9.877 1.581.877A1.33 1.33 0 0 1 53 41.2zm-15.9-3.797v-2.738h-18.55v3.223c.561.33.983.748 1.335 1.102.604.608.9.877 1.582.877.68 0 .976-.27 1.58-.877.694-.7 1.646-1.658 3.454-1.658 1.809 0 2.76.958 3.454 1.658.603.608.898.877 1.58.877s.977-.27 1.582-.877c.694-.7 1.645-1.658 3.453-1.658.2 0 .351.049.53.071zm0-10.738H18.55V32H37.1zm0-8H18.55V24H37.1z"/></g></g></svg>