<svg xmlns="http://www.w3.org/2000/svg" width="45" height="48" viewBox="0 0 45 48"><g><g><path fill="#2c2c2c" d="M45 36.917V48H34.453v-7.28L11.65 34.322a5.084 5.084 0 0 1-1.104-.457V48H7.909v-5.637H2.636V48H0V5.273A5.28 5.28 0 0 1 5.273 0a5.28 5.28 0 0 1 5.274 5.273V8.23l30.711 8.618-.006.023c.61.172 1.193.457 1.718.855A5.088 5.088 0 0 1 45 21.811a5.144 5.144 0 0 1-3.742 4.935l-9.328 2.618 9.328 2.617A5.144 5.144 0 0 1 45 36.917zm-37.09.173H2.635v2.637H7.91zm0-5.274H2.635v2.637H7.91zm0-5.273H2.635v2.637H7.91zm0-5.274H2.635v2.637H7.91zm0-5.273H2.635v2.637H7.91zm0-5.273H2.635v2.636H7.91zm0-5.45a2.64 2.64 0 0 0-2.637-2.636 2.64 2.64 0 0 0-2.637 2.636v2.813H7.91zm31.29 14.14L17.837 25.41l9.215 2.586 13.495-3.788a2.498 2.498 0 0 0 1.817-2.396c0-.787-.36-1.51-.986-1.985a2.47 2.47 0 0 0-2.176-.412zM10.548 16.14l15.281 4.288 9.215-2.585-24.496-6.875zm0 8.767c.182-.102.369-.192.56-.27.144-.09.324-.168.544-.23l9.298-2.61-10.402-2.918zm31.816 12.011a2.498 2.498 0 0 0-1.817-2.397l-26.837-7.53a2.472 2.472 0 0 0-2.177.412 2.47 2.47 0 0 0-.985 1.984c0 1.112.746 2.097 1.816 2.397l24.726 6.939v6.641h5.274z"/></g></g></svg>