<svg xmlns="http://www.w3.org/2000/svg" width="61" height="48" viewBox="0 0 61 48"><g><g><path fill="#2c2c2c" d="M34.198 14.233l-.528-3.076a2.004 2.004 0 0 1 .576-1.776l2.235-2.18-3.09-.447a2.007 2.007 0 0 1-1.51-1.098l-1.383-2.799L29 6h-.043a4.064 4.064 0 0 1 2.734 3.835v3.081zM28.699 1.12A1.993 1.993 0 0 1 30.497 0h.001c.77 0 1.458.428 1.799 1.117l1.633 3.307 3.649.53c.76.11 1.381.632 1.62 1.364.237.731.043 1.519-.508 2.056l-2.64 2.574.625 3.635a1.99 1.99 0 0 1-.512 1.71c.369.353.671.775.887 1.244a4.033 4.033 0 0 1 2.043-.554 4.063 4.063 0 0 1 3.788 2.607 4.026 4.026 0 0 1 1.942-.496 4.06 4.06 0 0 1 4.056 4.056v10.053c0 2.92-.444 5.815-1.318 8.602l-1.68 5.359a1.193 1.193 0 0 1-2.274-.713l1.68-5.36a26.336 26.336 0 0 0 1.209-7.888V23.15c0-.923-.751-1.673-1.673-1.673-.923 0-1.674.75-1.674 1.673v3.497a1.191 1.191 0 0 1-2.383 0v-5.608c0-.923-.75-1.673-1.673-1.673s-1.674.75-1.674 1.673v5.608a1.191 1.191 0 0 1-2.382 0v-7.423c0-.922-.751-1.673-1.674-1.673-.923 0-1.673.75-1.673 1.673v7.423a1.191 1.191 0 0 1-2.383 0V9.835c0-.923-.751-1.674-1.673-1.674-.923 0-1.674.751-1.674 1.674V11.9a1.191 1.191 0 1 1-2.382 0V9.835a4.062 4.062 0 0 1 3.484-4.016zm31.693 7.255l-2.64 2.574.625 3.635c.13.758-.175 1.51-.797 1.962a1.993 1.993 0 0 1-2.112.153l-3.265-1.715L48.94 16.7a1.996 1.996 0 0 1-2.112-.152 1.993 1.993 0 0 1-.798-1.962l.623-3.634-2.642-2.574a1.994 1.994 0 0 1-.508-2.056 1.995 1.995 0 0 1 1.619-1.365l3.649-.532L50.4 1.12A1.993 1.993 0 0 1 52.2 0c.77 0 1.459.428 1.8 1.117l1.632 3.307 3.65.53c.76.11 1.38.632 1.619 1.364.238.731.043 1.519-.507 2.056zm-2.21-1.173l-3.09-.447a2.007 2.007 0 0 1-1.51-1.098L52.2 2.858l-1.38 2.8a2.006 2.006 0 0 1-1.51 1.097l-3.09.45 2.236 2.178c.473.46.689 1.124.577 1.775l-.526 3.077 2.762-1.453a2.005 2.005 0 0 1 1.867 0l2.764 1.451-.529-3.076a2.002 2.002 0 0 1 .577-1.776zM16.99 8.374l-2.64 2.574.625 3.635c.13.758-.175 1.51-.797 1.962a1.993 1.993 0 0 1-2.113.153L8.8 14.983 5.537 16.7a1.996 1.996 0 0 1-2.112-.152 1.993 1.993 0 0 1-.8-1.962l.624-3.634L.607 8.378A1.994 1.994 0 0 1 .1 6.322a1.995 1.995 0 0 1 1.619-1.365l3.649-.532 1.63-3.306A1.994 1.994 0 0 1 8.796 0c.77 0 1.458.428 1.799 1.117l1.633 3.307 3.65.53c.76.11 1.38.632 1.619 1.364.237.731.043 1.52-.508 2.056zm-2.21-1.173l-3.09-.447a2.007 2.007 0 0 1-1.51-1.098L8.797 2.857l-1.38 2.8a2.006 2.006 0 0 1-1.511 1.098l-3.09.45 2.237 2.178c.473.46.689 1.125.577 1.775l-.526 3.077 2.762-1.453a2.005 2.005 0 0 1 1.867 0l2.763 1.451-.528-3.076a2.005 2.005 0 0 1 .577-1.776zm2.19 19.034l2.182 9.04a13.95 13.95 0 0 0 2.308 4.983l4.273 5.847a1.192 1.192 0 1 1-1.924 1.406l-4.273-5.847a16.321 16.321 0 0 1-2.701-5.83l-2.181-9.04a4.195 4.195 0 0 1 2.198-4.75 4.19 4.19 0 0 1 5.603 1.76l1.125 2.082v-4.383a1.191 1.191 0 0 1 2.383 0V30.6a1.191 1.191 0 0 1-2.24.566l-3.364-6.23a1.82 1.82 0 0 0-2.434-.764 1.823 1.823 0 0 0-.955 2.063zm8.993-9.426a1.2 1.2 0 0 1-.35.842 1.2 1.2 0 0 1-.842.35c-.313 0-.62-.128-.842-.35a1.2 1.2 0 0 1-.35-.842c0-.314.128-.62.35-.842a1.2 1.2 0 0 1 .842-.35 1.197 1.197 0 0 1 1.192 1.192z"/></g></g></svg>