<svg xmlns="http://www.w3.org/2000/svg" width="17" height="14" viewBox="0 0 17 14"><g><g><path fill="#fff" d="M.955 5.677l-.027.005h11.377L8.728 2.13a.92.92 0 0 1-.271-.655c0-.246.096-.48.27-.654l.557-.552a.926.926 0 0 1 .657-.27c.25 0 .483.096.657.27l6.13 6.077a.913.913 0 0 1 .272.653.91.91 0 0 1-.271.654l-6.13 6.078a.924.924 0 0 1-.658.269.927.927 0 0 1-.657-.27l-.556-.551a.91.91 0 0 1-.271-.65c0-.248.096-.467.27-.64l3.617-3.574H.942A.959.959 0 0 1 0 7.37v-.78c0-.508.444-.912.956-.912z"/></g></g></svg>