<svg xmlns="http://www.w3.org/2000/svg" width="13" height="9" viewBox="0 0 13 9"><g><g><path fill="#2c2c2c" d="M1.307 9.028c-.27 0-.504-.085-.703-.253l3.4-3.24.236.162c.254.178.46.317.62.418.157.1.368.202.632.306.263.104.509.157.736.157h.014c.227 0 .473-.053.737-.157.263-.104.474-.206.633-.306.158-.1.364-.24.618-.418l.236-.162 3.4 3.24a1.052 1.052 0 0 1-.703.253zM3.23 5.014L.235 7.87V2.94c.197.209.422.393.676.555.95.614 1.722 1.12 2.32 1.52zm9.004-2.074v4.93L9.24 5.014c.638-.425 1.413-.931 2.325-1.52.255-.166.478-.35.67-.555zM11.917.343c.212.2.318.44.318.72 0 .337-.11.658-.328.965-.219.306-.491.567-.817.785L8.634 4.438l-.678.448-.1.068c-.048.033-.11.074-.185.127a7.764 7.764 0 0 1-.71.45 2.087 2.087 0 0 1-.384.172 1.12 1.12 0 0 1-.334.057h-.015c-.102 0-.214-.019-.334-.057a2.038 2.038 0 0 1-.385-.172 6.994 6.994 0 0 1-.348-.207A12.108 12.108 0 0 1 4.8 5.08l-.184-.127-.1-.068-.676-.45c-.308-.205-.666-.442-1.08-.714-.763-.504-1.22-.808-1.372-.91a3.266 3.266 0 0 1-.783-.737c-.246-.313-.369-.603-.369-.871 0-.332.093-.608.279-.83.185-.22.449-.33.793-.33h9.856c.29 0 .542.099.754.299z"/></g></g></svg>