<svg xmlns="http://www.w3.org/2000/svg" width="13" height="12" viewBox="0 0 13 12"><g><g><path fill="#2c2c2c" d="M11.964 9.582l-1.852-1.855c-.37-.368-.98-.357-1.363.026l-.933.934c-.06-.033-.12-.066-.184-.103-.589-.327-1.396-.775-2.245-1.626-.85-.852-1.3-1.661-1.626-2.251a30.117 30.117 0 0 0-.1-.18l.625-.626.309-.31c.382-.382.392-.994.024-1.363L2.766.372C2.398.004 1.787.015 1.405.398L.882.923.897.94c-.176.223-.321.48-.43.759-.1.265-.163.518-.192.77C.031 4.5.957 6.356 3.472 8.874c3.477 3.48 6.278 3.218 6.399 3.206a3.122 3.122 0 0 0 1.528-.624l.011.01.53-.519c.381-.383.392-.995.024-1.364z"/></g></g></svg>