<svg xmlns="http://www.w3.org/2000/svg" width="10" height="12" viewBox="0 0 10 12"><g><g><path fill="#2c2c2c" d="M.266 4.88a3.88 3.88 0 0 1-.038-.523c0-2.322 2.014-4.203 4.5-4.203s4.5 1.881 4.5 4.203c0 .175-.015.347-.037.516-.375 3.285-4.107 7.074-4.107 7.074a.69.69 0 0 1-.195.147l-.003.002-.126.036-.126-.036-.004-.002a.69.69 0 0 1-.194-.147S.65 8.164.266 4.88zm1.567-.523c0 1.49 1.299 2.705 2.894 2.705 1.597 0 2.895-1.214 2.895-2.705 0-1.49-1.298-2.704-2.895-2.704-1.595 0-2.894 1.214-2.894 2.704z"/></g></g></svg>