<svg xmlns="http://www.w3.org/2000/svg" width="27" height="27" viewBox="0 0 27 27"><g><g><path fill="#2c2c2c" d="M27.013 8.436v10.125c0 4.66-3.78 8.438-8.442 8.438H8.441C3.78 27 0 23.221 0 18.561V8.436C0 3.777 3.78 0 8.441 0h10.13c4.662 0 8.442 3.778 8.442 8.437zm-2.532 0a5.914 5.914 0 0 0-5.91-5.906H8.441a5.914 5.914 0 0 0-5.909 5.906v10.125a5.914 5.914 0 0 0 5.91 5.907H18.57c3.26 0 5.91-2.65 5.91-5.907zM20.26 13.5a6.752 6.752 0 0 1-6.753 6.75 6.753 6.753 0 0 1-6.754-6.75 6.753 6.753 0 0 1 6.754-6.75 6.752 6.752 0 0 1 6.753 6.75zm-2.533 0a4.224 4.224 0 0 0-4.22-4.219A4.225 4.225 0 0 0 9.285 13.5a4.226 4.226 0 0 0 4.222 4.219 4.225 4.225 0 0 0 4.22-4.22zm3.04-8.156a.9.9 0 1 1 0 1.799.9.9 0 0 1 0-1.8z"/></g></g></svg>