<svg xmlns="http://www.w3.org/2000/svg" width="30" height="30" viewBox="0 0 30 30"><g><g><path fill="#252525" d="M28.86 26.014l-1.53 1.53a1.787 1.787 0 0 1-1.772.455l-.32.321C24.123 29.434 22.568 30 20.704 30c-1.137 0-2.388-.21-3.727-.634-3.331-1.056-6.86-3.331-9.937-6.408C3.964 19.88 1.69 16.35.633 13.02c-1.078-3.403-.774-6.249.853-8.056.024-.031.513-.525.513-.525a1.8 1.8 0 0 1 .455-1.772l1.53-1.529c.34-.34.791-.527 1.271-.527.481 0 .933.187 1.274.527l5.877 5.879a1.802 1.802 0 0 1 0 2.545l-1.528 1.528a1.793 1.793 0 0 1-1.773.456l-.576.577c-.41.41.22 2.961 3.303 6.044 3.083 3.083 5.634 3.712 6.043 3.302l.578-.577a1.799 1.799 0 0 1 .455-1.772l1.528-1.528a1.802 1.802 0 0 1 2.545 0l5.879 5.877a1.8 1.8 0 0 1 0 2.545zM3.726 3.94l2.94 2.938 2.916 2.918.022.022h.001l1.528-1.53L5.255 2.41zm20.4 22.945l-4.561-4.562-.418.418c-.437.437-1.01.632-1.672.632-1.966 0-4.706-1.723-6.917-3.935-2.954-2.953-5.037-6.85-3.303-8.587l.419-.42-4.562-4.56-.163.162c-1.295 1.294-1.508 3.583-.602 6.443.971 3.062 3.09 6.332 5.965 9.208 2.877 2.877 6.148 4.995 9.21 5.965 2.86.907 5.148.693 6.442-.601zm3.46-2.143l-5.878-5.878-1.529 1.528 5.879 5.879 1.528-1.529zm-2.152-11.118a.9.9 0 0 1-1.8 0 7.21 7.21 0 0 0-2.126-5.135 7.214 7.214 0 0 0-5.135-2.127.9.9 0 1 1 0-1.798 9 9 0 0 1 6.407 2.653 9.002 9.002 0 0 1 2.654 6.407zm4.564 0a.9.9 0 0 1-1.8 0c0-3.159-1.23-6.128-3.463-8.362A11.748 11.748 0 0 0 16.374 1.8a.9.9 0 1 1 0-1.8c3.639 0 7.061 1.417 9.634 3.99a13.536 13.536 0 0 1 3.99 9.635zm-9.128 0a.9.9 0 1 1-1.8 0c0-.732-.273-1.39-.79-1.907a2.61 2.61 0 0 0-1.907-.79.9.9 0 1 1 0-1.8c1.219 0 2.318.455 3.18 1.317a4.409 4.409 0 0 1 1.317 3.18z"/></g></g></svg>