<svg xmlns="http://www.w3.org/2000/svg" width="27" height="16" viewBox="0 0 27 16"><g><g><path fill="#2c2c2c" d="M26.854 14.451a1.804 1.804 0 0 0-.091-.182c-.469-.876-1.363-1.952-2.685-3.227l-.027-.03-.014-.012-.014-.016h-.015c-.6-.594-.979-.993-1.137-1.197-.292-.389-.357-.783-.198-1.183.113-.302.534-.939 1.265-1.912.384-.516.689-.93.914-1.241 1.62-2.238 2.324-3.67 2.108-4.292l-.084-.146c-.057-.088-.201-.167-.435-.24-.235-.073-.534-.086-.9-.037l-4.048.029a.509.509 0 0 0-.28.007l-.184.044-.07.037-.056.044a.64.64 0 0 0-.155.153 1.025 1.025 0 0 0-.14.256 24.324 24.324 0 0 1-1.504 3.284 31.749 31.749 0 0 1-.956 1.569c-.29.444-.534.77-.73.979-.198.209-.375.377-.535.503-.16.127-.28.18-.365.161a8.558 8.558 0 0 1-.24-.059.96.96 0 0 1-.315-.357 1.66 1.66 0 0 1-.162-.57 6.813 6.813 0 0 1-.05-.591c-.003-.166-.002-.399.008-.7.01-.303.014-.507.014-.614 0-.37.007-.772.021-1.204l.035-1.03c.01-.252.014-.52.014-.802a3.52 3.52 0 0 0-.049-.664 2.293 2.293 0 0 0-.148-.467.774.774 0 0 0-.287-.351 1.603 1.603 0 0 0-.471-.197c-.497-.118-1.13-.18-1.897-.19-1.744-.02-2.863.097-3.36.35a1.871 1.871 0 0 0-.534.438c-.169.214-.192.33-.07.35.562.088.96.297 1.194.628l.084.175c.067.127.132.35.198.672.066.321.107.676.126 1.066.047.71.047 1.318 0 1.824s-.091.901-.134 1.183a2.425 2.425 0 0 1-.19.686c-.084.175-.14.282-.168.322a.257.257 0 0 1-.07.072 1.023 1.023 0 0 1-.38.073c-.131 0-.29-.068-.477-.204a3.415 3.415 0 0 1-.584-.563 7.499 7.499 0 0 1-.681-1 18.052 18.052 0 0 1-.788-1.518l-.224-.423c-.141-.272-.332-.67-.577-1.19-.243-.52-.459-1.025-.646-1.511a.959.959 0 0 0-.337-.467l-.07-.044a.956.956 0 0 0-.225-.124 1.46 1.46 0 0 0-.324-.095l-3.85.03c-.395 0-.661.092-.802.277L.046 1.1a.489.489 0 0 0-.042.234c0 .107.028.238.084.394a48.794 48.794 0 0 0 1.834 3.97c.66 1.276 1.235 2.303 1.721 3.08.488.78.985 1.515 1.49 2.206.506.69.841 1.133 1.006 1.328.163.195.292.34.386.438l.351.35c.225.234.555.514.991.84.436.325.919.647 1.448.963.53.317 1.146.574 1.848.774.703.2 1.387.28 2.052.241h1.616c.329-.03.576-.136.746-.321l.055-.073a.97.97 0 0 0 .106-.27c.032-.122.049-.256.049-.402a5.03 5.03 0 0 1 .091-1.13c.07-.336.15-.59.24-.76a1.834 1.834 0 0 1 .54-.642.838.838 0 0 1 .112-.05c.225-.08.49-.004.795.225.305.229.59.512.857.847.268.336.588.712.963 1.131.375.419.703.73.984.934l.281.176c.187.116.431.224.731.32.3.098.562.123.787.074l3.597-.059c.357 0 .633-.06.83-.182.196-.121.314-.255.352-.401.037-.146.04-.312.006-.497a1.852 1.852 0 0 0-.099-.387z"/></g></g></svg>