<svg xmlns="http://www.w3.org/2000/svg" width="28" height="20" viewBox="0 0 28 20"><g><g><path fill="#2c2c2c" d="M28 7.54v4.92c0 3.118-.485 4.92-1.622 6.024C25.271 19.56 23.558 20 20.468 20H7.53c-6.366 0-7.532-2.54-7.532-7.54V7.54c0-2.581 0-4.446.982-5.712C1.988.529 3.886-.001 7.531-.001h12.936c3.565 0 5.43.498 6.441 1.717C27.923 2.941 28 4.816 28 7.539zm-9.54 2.325a.918.918 0 0 0-.486-.813l-5.875-3.096a.893.893 0 0 0-.885.03.918.918 0 0 0-.434.784v6.212c0 .32.165.618.435.785a.896.896 0 0 0 .886.027l5.874-3.115a.916.916 0 0 0 .486-.814z"/></g></g></svg>